<?xml version="1.0" encoding="UTF-8" standalone="no"?>
<!DOCTYPE svg PUBLIC "-//W3C//DTD SVG 1.1//EN" "http://www.w3.org/Graphics/SVG/1.1/DTD/svg11.dtd">
<svg width="100%" height="100%" viewBox="0 0 2016 2098" version="1.1" xmlns="http://www.w3.org/2000/svg" xmlns:xlink="http://www.w3.org/1999/xlink" xml:space="preserve" xmlns:serif="http://www.serif.com/" style="fill-rule:evenodd;clip-rule:evenodd;stroke-linejoin:round;stroke-miterlimit:2;">
    <g transform="matrix(1,0,0,1,57.611392,33.743096)">
        <g transform="matrix(5.277096,0,0,5.277096,-1648.579322,-1024.030143)">
            <path d="M533.353,532.297C504.888,550.998 502.409,551.368 502.276,548.565C501.692,536.278 502.246,373.703 502.297,358.497C502.302,357.132 501.385,351.334 504.575,350.879C510.077,350.095 557.94,348.437 614.756,306.847C616.732,305.4 629.838,295.807 638.266,287.243C638.519,286.987 642.344,283.1 642.422,285.525C642.624,291.756 643.245,377.382 636.271,386.32C632.808,390.758 611.873,409.079 597.233,418.073C553.402,445.003 529.242,443.827 528.749,448.542C528.334,452.517 528.808,452.506 528.611,498.499C528.598,501.467 527.689,503.582 530.436,502.303C533.187,501.022 561.314,477.549 579.078,452.213C580.211,450.597 583.92,445.017 584.338,444.389C586.515,441.114 608.158,432.343 624.809,417.983C629.191,414.203 626.469,420.245 626.373,420.458C621.336,431.636 600.428,487.13 533.353,532.297ZM614.867,355.529C615.572,347.244 617.327,336.227 613.418,339.351C611.729,340.701 601.264,347.004 595.657,349.796C558.576,368.257 549.941,368.633 530.483,373.449C528.469,373.948 528.66,374.837 528.645,417.49C528.643,420.922 530.311,419.586 533.534,418.616C573.513,406.589 600.869,383.257 605.891,378.974C615.948,370.397 613.276,368.626 614.867,355.529Z" style="fill:rgb(124,208,165);"/>
        </g>
        <g transform="matrix(5.277096,0,0,5.277096,-1648.579322,-1024.030143)">
            <path d="M455.7,429.154C456.662,428.597 456.929,428.724 456.857,427.646C456.532,422.838 456.664,394.893 456.685,355.502C456.688,349.996 455.233,347.024 460.592,348.02C473.444,350.408 480.21,350.481 481.697,351.147C482.755,351.621 482.869,352.111 482.86,431.5C482.853,493.096 484.708,498.44 480.471,495.552C463.862,484.228 459.738,478.956 456.11,474.858C425.151,439.884 421.9,413.037 418.803,419.669C412.274,433.652 412.58,433.722 405.263,447.377C402.626,452.298 430.828,482.432 442.098,491.957C473.949,518.876 482.861,515.824 482.888,523.5C482.977,548.296 483.336,550.942 480.484,549.538C467.864,543.326 449.723,530.779 447.146,528.997C382.491,484.281 344.342,414.316 342.873,340.493C342.785,336.098 342.116,302.488 342.715,285.549C342.857,281.515 348.315,290.235 365.107,302.996C372.399,308.537 366.422,310.962 370.319,355.519C372.919,385.256 386.908,420.097 388.561,420.323C390.68,420.613 400.181,397.449 404.598,377.523C406.337,369.678 399.796,357.647 400.098,328.449C400.118,326.494 400.852,326.323 402.589,327.299C413.574,333.47 413.863,332.74 425.463,337.564C427.428,338.381 427.501,347.677 427.986,351.436C432.963,389.965 453.526,426.168 455.7,429.154Z" style="fill:rgb(30,99,133);"/>
        </g>
        <g transform="matrix(5.277096,0,0,5.277096,-1648.579322,-1024.030143)">
            <path d="M518.498,288.841C540.977,287.123 537.147,263.645 540.02,272.661C542.786,281.342 540.062,293.758 539.67,295.546C531.752,331.641 476.589,348.769 450.972,308.206C439.792,290.505 443.995,267.527 452.538,256.526C452.606,256.438 457.316,252.245 451.523,253.644C404.475,265.008 394.097,273.43 374.399,284.295C372.624,285.274 371.925,285.1 354.863,268.16C352.064,265.38 359.602,262.199 365.239,259.037C479.214,195.096 568.239,229.388 625.233,261.96C625.762,262.262 631.33,265.444 631.348,266.505C631.368,267.718 613.656,284.667 611.524,284.376C607.806,283.87 576.215,259.027 514.506,250.446C501.662,248.66 488.373,276.527 510.628,287.216C513.251,288.475 517.857,288.796 518.498,288.841Z" style="fill:rgb(30,99,134);"/>
        </g>
    </g>
</svg>
